<svg viewBox="0 0 100 100" fill="none" xmlns="http://www.w3.org/2000/svg">
  <!-- Background circle for favicon -->
  <circle cx="50" cy="50" r="50" fill="#F5F5F5"/>
  
  <!-- Body -->
  <ellipse cx="50" cy="65" rx="26" ry="28" fill="#0D0D0D" opacity="0.85"/>
  
  <!-- Head -->
  <circle cx="50" cy="38" r="30" fill="#0D0D0D"/>
  
  <!-- Left Ear -->
  <ellipse cx="30" cy="18" rx="10" ry="14" fill="#0D0D0D"/>
  <ellipse cx="30" cy="20" rx="6" ry="9" fill="#8B5CF6" opacity="0.4"/>
  
  <!-- Right Ear -->
  <ellipse cx="70" cy="18" rx="10" ry="14" fill="#0D0D0D"/>
  <ellipse cx="70" cy="20" rx="6" ry="9" fill="#8B5CF6" opacity="0.4"/>
  
  <!-- Eyes -->
  <path d="M38 36 Q42 33 46 36" stroke="#8B5CF6" stroke-width="2.5" fill="none" stroke-linecap="round"/>
  <path d="M54 36 Q58 33 62 36" stroke="#8B5CF6" stroke-width="2.5" fill="none" stroke-linecap="round"/>
  
  <!-- Nose -->
  <circle cx="50" cy="44" r="3" fill="#8B5CF6"/>
  
  <!-- Smile -->
  <path d="M50 46 Q44 50 40 48" stroke="#8B5CF6" stroke-width="2" fill="none" stroke-linecap="round"/>
  <path d="M50 46 Q56 50 60 48" stroke="#8B5CF6" stroke-width="2" fill="none" stroke-linecap="round"/>
  
  <!-- Front paws -->
  <ellipse cx="38" cy="86" rx="7" ry="5" fill="#0D0D0D"/>
  <ellipse cx="62" cy="86" rx="7" ry="5" fill="#0D0D0D"/>
</svg>
